<svg width="3096" height="678" viewBox="0 0 3096 678" fill="none" xmlns="http://www.w3.org/2000/svg">
<path d="M458.395 3.21553C451.548 6.889 445.704 14.236 443.533 22.0838C442.865 25.0894 420.988 165.349 395.271 333.828C362.373 548.727 348.512 643.068 349.013 649.747C351.184 683.81 401.45 688.653 410.467 655.591C411.135 652.586 433.012 512.326 458.729 343.847C491.627 128.949 505.488 34.6071 504.987 27.928C504.319 16.9076 498.808 8.39179 488.788 3.04855C481.107 -1.12585 466.578 -0.958876 458.395 3.21553Z" fill="#FC0E49"/>
<path d="M221.749 97.814C218.748 98.4828 214.247 100.657 211.746 102.329C209.412 104.168 161.895 153.832 106.376 212.86C33.1839 290.448 4.50725 321.885 2.50655 326.902C-0.994664 335.597 -0.82794 342.787 3.00673 351.316C5.00742 355.663 36.8518 390.946 93.2048 450.81C222.416 588.263 213.58 579.902 229.252 579.902C252.594 579.902 268.432 554.15 257.429 533.917C255.595 530.573 214.414 485.591 165.73 433.921C117.213 382.418 77.3659 339.443 77.3659 338.607C77.3659 337.771 117.213 294.796 165.73 243.293C214.414 191.623 255.595 146.641 257.429 143.297C269.933 120.388 247.425 91.7941 221.749 97.814Z" fill="#FC0E49"/>
<path d="M618.12 98.6538C598.031 103.328 586.982 126.531 596.524 144.059C598.366 147.397 639.882 192.301 688.598 243.883C737.481 295.297 777.323 338.198 777.323 339.032C777.323 339.867 737.481 382.768 688.598 434.182C628.331 497.95 598.7 530.501 596.022 535.676C586.145 555.874 601.714 579.912 624.816 579.912C640.552 579.912 632.014 587.925 761.42 451.042C817.836 391.281 849.978 356.059 851.987 351.719C856.004 343.039 856.004 335.026 851.987 326.346C849.978 322.006 817.836 286.783 761.42 227.023C659.302 119.019 644.905 104.162 639.213 101.325C633.354 98.3199 624.314 97.1514 618.12 98.6538Z" fill="#FC0E49"/>
<path d="M1069.94 316.922V339H967.562V316.922H1069.94ZM972.906 134.25V339H945.766V134.25H972.906ZM1210.56 134.25H1237.56V272.766C1237.56 288.141 1234.14 300.938 1227.3 311.156C1220.45 321.375 1211.36 329.062 1200.02 334.219C1188.77 339.281 1176.53 341.812 1163.31 341.812C1149.44 341.812 1136.88 339.281 1125.62 334.219C1114.47 329.062 1105.61 321.375 1099.05 311.156C1092.58 300.938 1089.34 288.141 1089.34 272.766V134.25H1116.2V272.766C1116.2 283.453 1118.17 292.266 1122.11 299.203C1126.05 306.141 1131.53 311.297 1138.56 314.672C1145.69 318.047 1153.94 319.734 1163.31 319.734C1172.78 319.734 1181.03 318.047 1188.06 314.672C1195.19 311.297 1200.72 306.141 1204.66 299.203C1208.59 292.266 1210.56 283.453 1210.56 272.766V134.25ZM1403.78 273.891H1430.78C1429.38 286.828 1425.67 298.406 1419.67 308.625C1413.67 318.844 1405.19 326.953 1394.22 332.953C1383.25 338.859 1369.56 341.812 1353.16 341.812C1341.16 341.812 1330.23 339.562 1320.39 335.062C1310.64 330.562 1302.25 324.188 1295.22 315.938C1288.19 307.594 1282.75 297.609 1278.91 285.984C1275.16 274.266 1273.28 261.234 1273.28 246.891V226.5C1273.28 212.156 1275.16 199.172 1278.91 187.547C1282.75 175.828 1288.23 165.797 1295.36 157.453C1302.58 149.109 1311.25 142.688 1321.38 138.188C1331.5 133.688 1342.89 131.438 1355.55 131.438C1371.02 131.438 1384.09 134.344 1394.78 140.156C1405.47 145.969 1413.77 154.031 1419.67 164.344C1425.67 174.562 1429.38 186.422 1430.78 199.922H1403.78C1402.47 190.359 1400.03 182.156 1396.47 175.312C1392.91 168.375 1387.84 163.031 1381.28 159.281C1374.72 155.531 1366.14 153.656 1355.55 153.656C1346.45 153.656 1338.44 155.391 1331.5 158.859C1324.66 162.328 1318.89 167.25 1314.2 173.625C1309.61 180 1306.14 187.641 1303.8 196.547C1301.45 205.453 1300.28 215.344 1300.28 226.219V246.891C1300.28 256.922 1301.31 266.344 1303.38 275.156C1305.53 283.969 1308.77 291.703 1313.08 298.359C1317.39 305.016 1322.88 310.266 1329.53 314.109C1336.19 317.859 1344.06 319.734 1353.16 319.734C1364.69 319.734 1373.88 317.906 1380.72 314.25C1387.56 310.594 1392.72 305.344 1396.19 298.5C1399.75 291.656 1402.28 283.453 1403.78 273.891ZM1543.56 152.391L1475.78 339H1448.08L1526.12 134.25H1543.98L1543.56 152.391ZM1600.38 339L1532.45 152.391L1532.03 134.25H1549.89L1628.22 339H1600.38ZM1596.86 263.203V285.422H1481.83V263.203H1596.86ZM1764.77 287.25C1764.77 282.469 1764.02 278.25 1762.52 274.594C1761.11 270.844 1758.58 267.469 1754.92 264.469C1751.36 261.469 1746.39 258.609 1740.02 255.891C1733.73 253.172 1725.77 250.406 1716.11 247.594C1705.98 244.594 1696.84 241.266 1688.69 237.609C1680.53 233.859 1673.55 229.594 1667.73 224.812C1661.92 220.031 1657.47 214.547 1654.38 208.359C1651.28 202.172 1649.73 195.094 1649.73 187.125C1649.73 179.156 1651.38 171.797 1654.66 165.047C1657.94 158.297 1662.62 152.438 1668.72 147.469C1674.91 142.406 1682.27 138.469 1690.8 135.656C1699.33 132.844 1708.84 131.438 1719.34 131.438C1734.72 131.438 1747.75 134.391 1758.44 140.297C1769.22 146.109 1777.42 153.75 1783.05 163.219C1788.67 172.594 1791.48 182.625 1791.48 193.312H1764.48C1764.48 185.625 1762.84 178.828 1759.56 172.922C1756.28 166.922 1751.31 162.234 1744.66 158.859C1738 155.391 1729.56 153.656 1719.34 153.656C1709.69 153.656 1701.72 155.109 1695.44 158.016C1689.16 160.922 1684.47 164.859 1681.38 169.828C1678.38 174.797 1676.88 180.469 1676.88 186.844C1676.88 191.156 1677.77 195.094 1679.55 198.656C1681.42 202.125 1684.28 205.359 1688.12 208.359C1692.06 211.359 1697.03 214.125 1703.03 216.656C1709.12 219.188 1716.39 221.625 1724.83 223.969C1736.45 227.25 1746.48 230.906 1754.92 234.938C1763.36 238.969 1770.3 243.516 1775.73 248.578C1781.27 253.547 1785.34 259.219 1787.97 265.594C1790.69 271.875 1792.05 279 1792.05 286.969C1792.05 295.312 1790.36 302.859 1786.98 309.609C1783.61 316.359 1778.78 322.125 1772.5 326.906C1766.22 331.688 1758.67 335.391 1749.86 338.016C1741.14 340.547 1731.39 341.812 1720.61 341.812C1711.14 341.812 1701.81 340.5 1692.62 337.875C1683.53 335.25 1675.23 331.312 1667.73 326.062C1660.33 320.812 1654.38 314.344 1649.88 306.656C1645.47 298.875 1643.27 289.875 1643.27 279.656H1670.27C1670.27 286.688 1671.62 292.734 1674.34 297.797C1677.06 302.766 1680.77 306.891 1685.45 310.172C1690.23 313.453 1695.62 315.891 1701.62 317.484C1707.72 318.984 1714.05 319.734 1720.61 319.734C1730.08 319.734 1738.09 318.422 1744.66 315.797C1751.22 313.172 1756.19 309.422 1759.56 304.547C1763.03 299.672 1764.77 293.906 1764.77 287.25ZM2055.58 134.25V339H2028.3L1925.22 181.078V339H1898.08V134.25H1925.22L2028.72 292.594V134.25H2055.58ZM2182 152.391L2114.22 339H2086.52L2164.56 134.25H2182.42L2182 152.391ZM2238.81 339L2170.89 152.391L2170.47 134.25H2188.33L2266.66 339H2238.81ZM2235.3 263.203V285.422H2120.27V263.203H2235.3ZM2431.47 316.922V339H2292.81V316.922H2431.47ZM2426.97 153.938L2299.28 339H2282.55V318.75L2410.09 134.25H2426.97V153.938ZM2415.44 134.25V156.469H2284.38V134.25H2415.44ZM2604.16 316.922V339H2465.5V316.922H2604.16ZM2599.66 153.938L2471.97 339H2455.23V318.75L2582.78 134.25H2599.66V153.938ZM2588.12 134.25V156.469H2457.06V134.25H2588.12ZM2668.56 134.25V339H2641.42V134.25H2668.56ZM2875.42 134.25V339H2848.14L2745.06 181.078V339H2717.92V134.25H2745.06L2848.56 292.594V134.25H2875.42ZM2952.62 134.25V339H2925.48V134.25H2952.62Z" fill="white"/>
<path d="M947.453 442.625V545H933.883V442.625H947.453ZM990.344 488.68V499.789H944.5V488.68H990.344ZM997.305 442.625V453.734H944.5V442.625H997.305ZM1013.48 442.625H1047.37C1055.05 442.625 1061.55 443.797 1066.84 446.141C1072.19 448.484 1076.24 451.953 1079.01 456.547C1081.82 461.094 1083.23 466.695 1083.23 473.352C1083.23 478.039 1082.27 482.328 1080.34 486.219C1078.47 490.062 1075.75 493.344 1072.19 496.062C1068.67 498.734 1064.45 500.727 1059.53 502.039L1055.73 503.516H1023.88L1023.74 492.477H1047.79C1052.66 492.477 1056.72 491.633 1059.95 489.945C1063.19 488.211 1065.62 485.891 1067.27 482.984C1068.91 480.078 1069.73 476.867 1069.73 473.352C1069.73 469.414 1068.95 465.969 1067.41 463.016C1065.86 460.062 1063.42 457.789 1060.09 456.195C1056.81 454.555 1052.57 453.734 1047.37 453.734H1027.05V545H1013.48V442.625ZM1073.31 545L1048.42 498.594L1062.55 498.523L1087.8 544.156V545H1073.31ZM1181.03 490.578V497.047C1181.03 504.734 1180.07 511.625 1178.15 517.719C1176.23 523.812 1173.46 528.992 1169.85 533.258C1166.24 537.523 1161.91 540.781 1156.84 543.031C1151.83 545.281 1146.2 546.406 1139.97 546.406C1133.92 546.406 1128.37 545.281 1123.3 543.031C1118.29 540.781 1113.93 537.523 1110.23 533.258C1106.57 528.992 1103.73 523.812 1101.72 517.719C1099.7 511.625 1098.7 504.734 1098.7 497.047V490.578C1098.7 482.891 1099.68 476.023 1101.65 469.977C1103.66 463.883 1106.5 458.703 1110.16 454.438C1113.81 450.125 1118.15 446.844 1123.16 444.594C1128.23 442.344 1133.78 441.219 1139.83 441.219C1146.06 441.219 1151.69 442.344 1156.7 444.594C1161.77 446.844 1166.1 450.125 1169.71 454.438C1173.37 458.703 1176.16 463.883 1178.08 469.977C1180.05 476.023 1181.03 482.891 1181.03 490.578ZM1167.6 497.047V490.438C1167.6 484.344 1166.97 478.953 1165.7 474.266C1164.48 469.578 1162.68 465.641 1160.29 462.453C1157.9 459.266 1154.97 456.852 1151.5 455.211C1148.08 453.57 1144.19 452.75 1139.83 452.75C1135.61 452.75 1131.79 453.57 1128.37 455.211C1124.99 456.852 1122.09 459.266 1119.65 462.453C1117.26 465.641 1115.41 469.578 1114.09 474.266C1112.78 478.953 1112.12 484.344 1112.12 490.438V497.047C1112.12 503.188 1112.78 508.625 1114.09 513.359C1115.41 518.047 1117.28 522.008 1119.72 525.242C1122.2 528.43 1125.13 530.844 1128.51 532.484C1131.93 534.125 1135.75 534.945 1139.97 534.945C1144.38 534.945 1148.29 534.125 1151.71 532.484C1155.13 530.844 1158.02 528.43 1160.36 525.242C1162.75 522.008 1164.55 518.047 1165.77 513.359C1166.99 508.625 1167.6 503.188 1167.6 497.047ZM1280.1 442.625V545H1266.46L1214.92 466.039V545H1201.35V442.625H1214.92L1266.67 521.797V442.625H1280.1ZM1339.87 442.625V545H1326.51V442.625H1339.87ZM1372.77 442.625V453.734H1293.67V442.625H1372.77ZM1396.75 496.133V506.82H1362.44V496.133H1396.75ZM1476.48 533.961V545H1422.27V533.961H1476.48ZM1425.02 442.625V545H1411.45V442.625H1425.02ZM1469.31 486.641V497.68H1422.27V486.641H1469.31ZM1475.78 442.625V453.734H1422.27V442.625H1475.78ZM1572.04 442.625V545H1558.4L1506.86 466.039V545H1493.29V442.625H1506.86L1558.61 521.797V442.625H1572.04ZM1623.79 545H1602.41L1602.55 533.961H1623.79C1631.1 533.961 1637.2 532.438 1642.07 529.391C1646.95 526.297 1650.6 521.984 1653.04 516.453C1655.52 510.875 1656.77 504.359 1656.77 496.906V490.648C1656.77 484.789 1656.06 479.586 1654.66 475.039C1653.25 470.445 1651.19 466.578 1648.47 463.438C1645.75 460.25 1642.42 457.836 1638.48 456.195C1634.59 454.555 1630.12 453.734 1625.05 453.734H1601.99V442.625H1625.05C1631.76 442.625 1637.88 443.75 1643.41 446C1648.94 448.203 1653.7 451.414 1657.68 455.633C1661.71 459.805 1664.8 464.867 1666.96 470.82C1669.12 476.727 1670.2 483.383 1670.2 490.789V496.906C1670.2 504.312 1669.12 510.992 1666.96 516.945C1664.8 522.852 1661.69 527.891 1657.61 532.062C1653.58 536.234 1648.7 539.445 1642.98 541.695C1637.31 543.898 1630.91 545 1623.79 545ZM1609.66 442.625V545H1596.09V442.625H1609.66ZM1754.01 545H1732.63L1732.77 533.961H1754.01C1761.32 533.961 1767.41 532.438 1772.29 529.391C1777.16 526.297 1780.82 521.984 1783.26 516.453C1785.74 510.875 1786.98 504.359 1786.98 496.906V490.648C1786.98 484.789 1786.28 479.586 1784.88 475.039C1783.47 470.445 1781.41 466.578 1778.69 463.438C1775.97 460.25 1772.64 457.836 1768.7 456.195C1764.81 454.555 1760.34 453.734 1755.27 453.734H1732.21V442.625H1755.27C1761.98 442.625 1768.09 443.75 1773.62 446C1779.16 448.203 1783.91 451.414 1787.9 455.633C1791.93 459.805 1795.02 464.867 1797.18 470.82C1799.34 476.727 1800.41 483.383 1800.41 490.789V496.906C1800.41 504.312 1799.34 510.992 1797.18 516.945C1795.02 522.852 1791.91 527.891 1787.83 532.062C1783.8 536.234 1778.92 539.445 1773.2 541.695C1767.53 543.898 1761.13 545 1754.01 545ZM1739.88 442.625V545H1726.3V442.625H1739.88ZM1885.84 533.961V545H1831.63V533.961H1885.84ZM1834.38 442.625V545H1820.8V442.625H1834.38ZM1878.67 486.641V497.68H1831.63V486.641H1878.67ZM1885.14 442.625V453.734H1831.63V442.625H1885.14ZM1935.7 529.461L1965.86 442.625H1980.55L1942.66 545H1932.18L1935.7 529.461ZM1907.5 442.625L1937.38 529.461L1941.11 545H1930.63L1892.8 442.625H1907.5ZM2059.38 533.961V545H2005.16V533.961H2059.38ZM2007.91 442.625V545H1994.34V442.625H2007.91ZM2052.2 486.641V497.68H2005.16V486.641H2052.2ZM2058.67 442.625V453.734H2005.16V442.625H2058.67ZM2138.27 533.961V545H2087.08V533.961H2138.27ZM2089.75 442.625V545H2076.18V442.625H2089.75ZM2227.98 490.578V497.047C2227.98 504.734 2227.02 511.625 2225.1 517.719C2223.18 523.812 2220.41 528.992 2216.8 533.258C2213.2 537.523 2208.86 540.781 2203.8 543.031C2198.78 545.281 2193.16 546.406 2186.92 546.406C2180.88 546.406 2175.32 545.281 2170.26 543.031C2165.24 540.781 2160.88 537.523 2157.18 533.258C2153.52 528.992 2150.69 523.812 2148.67 517.719C2146.66 511.625 2145.65 504.734 2145.65 497.047V490.578C2145.65 482.891 2146.63 476.023 2148.6 469.977C2150.62 463.883 2153.45 458.703 2157.11 454.438C2160.77 450.125 2165.1 446.844 2170.12 444.594C2175.18 442.344 2180.73 441.219 2186.78 441.219C2193.02 441.219 2198.64 442.344 2203.66 444.594C2208.72 446.844 2213.05 450.125 2216.66 454.438C2220.32 458.703 2223.11 463.883 2225.03 469.977C2227 476.023 2227.98 482.891 2227.98 490.578ZM2214.55 497.047V490.438C2214.55 484.344 2213.92 478.953 2212.66 474.266C2211.44 469.578 2209.63 465.641 2207.24 462.453C2204.85 459.266 2201.92 456.852 2198.45 455.211C2195.03 453.57 2191.14 452.75 2186.78 452.75C2182.56 452.75 2178.74 453.57 2175.32 455.211C2171.95 456.852 2169.04 459.266 2166.6 462.453C2164.21 465.641 2162.36 469.578 2161.05 474.266C2159.73 478.953 2159.08 484.344 2159.08 490.438V497.047C2159.08 503.188 2159.73 508.625 2161.05 513.359C2162.36 518.047 2164.23 522.008 2166.67 525.242C2169.16 528.43 2172.09 530.844 2175.46 532.484C2178.88 534.125 2182.7 534.945 2186.92 534.945C2191.33 534.945 2195.24 534.125 2198.66 532.484C2202.09 530.844 2204.97 528.43 2207.31 525.242C2209.7 522.008 2211.51 518.047 2212.73 513.359C2213.95 508.625 2214.55 503.188 2214.55 497.047ZM2286.06 504.852H2258.71V493.812H2286.06C2291.36 493.812 2295.65 492.969 2298.93 491.281C2302.21 489.594 2304.6 487.25 2306.1 484.25C2307.65 481.25 2308.42 477.828 2308.42 473.984C2308.42 470.469 2307.65 467.164 2306.1 464.07C2304.6 460.977 2302.21 458.492 2298.93 456.617C2295.65 454.695 2291.36 453.734 2286.06 453.734H2261.88V545H2248.3V442.625H2286.06C2293.8 442.625 2300.34 443.961 2305.68 446.633C2311.02 449.305 2315.08 453.008 2317.84 457.742C2320.61 462.43 2321.99 467.797 2321.99 473.844C2321.99 480.406 2320.61 486.008 2317.84 490.648C2315.08 495.289 2311.02 498.828 2305.68 501.266C2300.34 503.656 2293.8 504.852 2286.06 504.852ZM2404.19 533.961V545H2349.98V533.961H2404.19ZM2352.72 442.625V545H2339.15V442.625H2352.72ZM2397.02 486.641V497.68H2349.98V486.641H2397.02ZM2403.48 442.625V453.734H2349.98V442.625H2403.48ZM2420.99 442.625H2454.88C2462.57 442.625 2469.06 443.797 2474.36 446.141C2479.7 448.484 2483.76 451.953 2486.52 456.547C2489.34 461.094 2490.74 466.695 2490.74 473.352C2490.74 478.039 2489.78 482.328 2487.86 486.219C2485.98 490.062 2483.27 493.344 2479.7 496.062C2476.19 498.734 2471.97 500.727 2467.05 502.039L2463.25 503.516H2431.4L2431.26 492.477H2455.3C2460.18 492.477 2464.23 491.633 2467.47 489.945C2470.7 488.211 2473.14 485.891 2474.78 482.984C2476.42 480.078 2477.24 476.867 2477.24 473.352C2477.24 469.414 2476.47 465.969 2474.92 463.016C2473.38 460.062 2470.94 457.789 2467.61 456.195C2464.33 454.555 2460.09 453.734 2454.88 453.734H2434.56V545H2420.99V442.625ZM2480.83 545L2455.94 498.594L2470.07 498.523L2495.31 544.156V545H2480.83Z" fill="white"/>
</svg>
